<svg width="427" height="428" viewBox="0 0 427 428" fill="none" xmlns="http://www.w3.org/2000/svg">
<path d="M128.334 342.001C104.761 342.001 85.8807 361.095 85.8807 384.668C85.8807 408.241 104.761 427.335 128.334 427.335C151.907 427.335 171.001 408.241 171.001 384.668C171.001 361.095 151.907 342.001 128.334 342.001ZM0.333984 0.667969V43.3346H43.0006L119.694 205.148L90.894 257.415C87.5873 263.601 85.6673 270.535 85.6673 278.001C85.6673 301.575 104.761 320.668 128.334 320.668H384.334V278.001H137.401C134.414 278.001 132.067 275.655 132.067 272.668C132.067 271.708 132.281 270.855 132.707 270.108L151.801 235.335H310.734C326.734 235.335 340.707 226.481 348.067 213.361L424.334 74.908C426.041 71.9213 427.001 68.4013 427.001 64.668C427.001 59.01 424.753 53.5838 420.752 49.583C416.751 45.5822 411.325 43.3346 405.667 43.3346H90.254L69.9873 0.667969H0.333984ZM341.667 342.001C318.094 342.001 299.214 361.095 299.214 384.668C299.214 408.241 318.094 427.335 341.667 427.335C365.241 427.335 384.334 408.241 384.334 384.668C384.334 361.095 365.241 342.001 341.667 342.001Z" fill="#102942"/>
</svg>
